<?xml version="1.0" standalone="no"?><!DOCTYPE svg PUBLIC "-//W3C//DTD SVG 1.1//EN" "http://www.w3.org/Graphics/SVG/1.1/DTD/svg11.dtd"><svg t="1701844025739" class="icon" viewBox="0 0 1197 1024" version="1.1" xmlns="http://www.w3.org/2000/svg" p-id="6624" xmlns:xlink="http://www.w3.org/1999/xlink" width="233.7890625" height="200"><path d="M1171.735977 350.90634c-1.736499-8.949648-3.472998-17.765719-5.47665-26.58179-19.101487-86.691364-48.221237-155.082703-88.695017-209.314897-54.766501-73.066528-145.598748-114.876076-249.387947-114.876076-40.874511 0-81.615445 6.411688-120.486303 18.96791-47.286199 15.227759-112.471693 48.221237-154.281242 118.349074C514.270806 202.769632 497.039395 287.19019 490.226976 331.671276c-17.765719 118.349074-26.448213 237.900339-25.780328 357.585181 0.133577 17.097835 12.956953 30.989825 28.585442 30.989825 2.671537 0 5.343073-0.40073 7.881033-1.202191 11.621184-3.606574 26.58179-2.805113 40.607357 2.137229 12.021915 4.140882 23.108792 10.418993 34.99713 16.964258 11.086877 6.144534 22.574485 12.556222 34.863554 17.097834 24.44456 9.350378 51.02635 11.220454 76.539525 5.476651 15.494913-3.472998 30.455518-9.751109 45.015392-15.762067 23.910253-10.018262 46.217584-19.368641 69.459953-16.296373 18.700757 2.53796 35.531438 12.956953 53.430734 23.910253 17.097835 10.55257 34.729977 21.372293 54.766501 25.646752 6.411688 1.335768 12.823376 2.003652 19.235064 2.003652 30.321941 0 59.441691-14.025567 87.626402-27.383251 27.650404-13.224106 53.697887-25.780329 80.1461-25.780328 5.343073 0 10.686147 0.534307 15.895643 1.602922 5.07592 1.068615 10.418993 3.606574 16.02922 6.144534 8.548917 4.007305 17.498565 8.148187 27.650404 8.148187 1.469345 0 2.93869-0.133577 4.408036-0.267154 21.10514-2.671537 36.600052-23.509523 35.264284-47.686929-1.602922-28.986173-2.93869-59.308114-4.274459-89.897209-4.007305-92.301591-8.148187-187.809027-20.837986-254.196712zM1159.046178 722.650665c-6.945995 0.801461-14.292721-2.671537-22.307331-6.411688-6.278111-2.93869-12.689799-5.877381-19.769371-7.346725-6.411688-1.335768-12.956953-2.003652-19.502218-2.003653-30.321941 0-59.441691 14.025567-87.626402 27.383251-27.650404 13.224106-53.697887 25.780329-80.1461 25.780328-5.343073 0-10.55257-0.534307-15.762066-1.602922-17.097835-3.606574-32.726324-13.09053-49.156275-23.375945-18.700757-11.487608-37.935821-23.375946-60.243151-26.448213-3.740151-0.534307-7.480303-0.801461-11.354031-0.667884-23.375946 0-45.5497 9.216801-67.05557 18.166449-13.758414 5.743804-28.051135 11.754761-42.076702 14.827028-22.307331 4.942343-45.416123 3.339421-66.788417-4.808766-11.086877-4.140882-21.50587-9.884686-32.45917-16.02922-12.021915-6.678842-24.44456-13.624837-37.802244-18.166449-17.364988-6.144534-36.199322-7.079572-51.293504-2.270806-6.411688 2.003652-12.823376-3.472998-12.956952-10.418993-0.534307-118.482651 8.01461-236.965301 25.646752-354.112184 6.545265-43.01174 23.242369-124.360031 60.376728-186.740412 38.737282-64.918341 99.781894-95.641012 143.995826-110.06731 37.267936-11.888338 76.138795-18.032872 115.276806-18.032872 98.178972 0 183.801722 39.138012 234.961649 107.52935 38.870858 51.827811 66.65484 117.68119 85.088443 201.300287 1.870076 8.682494 3.740151 17.364988 5.343073 26.047482 12.289069 64.918341 16.42995 159.490738 20.437255 251.124446 1.335768 30.722672 2.671537 61.178189 4.274459 90.164362 0.935038 12.956953-7.613879 24.711714-19.101487 26.181059z" fill="#684C4B" p-id="6625"></path><path d="M817.890947 175.252805c100.049048 0 181.931646 76.272372 181.931646 169.509v78.142448c0 93.236629-122.356379 169.509001-181.931646 169.509s-181.931646-76.673102-181.931646-169.509v-78.142448c0-93.236629 81.882598-169.509001 181.931646-169.509z" fill="#F0D0D3" p-id="6626"></path><path d="M817.890947 601.095747c-64.651187 0-191.148448-80.680407-191.148448-178.191494v-78.142448c0-98.178972 85.756327-178.191495 191.148448-178.191495s191.148448 79.878946 191.148448 178.191495v78.142448c0.133577 97.511088-126.497261 178.191495-191.148448 178.191494z m0-417.160448c-95.240282 0-172.714845 72.13149-172.714845 160.960083v78.142447c0 86.424211 115.811114 160.826507 172.714845 160.826507s172.714845-74.535873 172.714845-160.960083v-78.142448c0-88.695017-77.474563-160.826507-172.714845-160.826506z" fill="#684C4B" p-id="6627"></path><path d="M886.415862 571.842421V679.906079c0 35.130707-136.916254 35.130707-136.916253 0v-108.197235c25.112445 13.09053 49.824159 20.570832 68.391338 20.570832s43.278894-7.346726 68.524915-20.437255z" fill="#F0D0D3" p-id="6628"></path><path d="M817.890947 714.903209c-18.96791 0-36.867206-2.53796-50.224889-7.079572-22.708062-7.747456-27.516828-19.368641-27.516828-27.783981v-122.890687l13.758414 7.213149c23.776676 12.422645 47.152622 19.368641 63.983303 19.368641s40.206627-7.079572 63.983303-19.368641l13.758414-7.079572V679.906079c0 25.913906-41.809549 34.99713-77.741717 34.99713zM758.71641 586.001565v94.038091c0 8.41534 24.310984 17.632142 59.174537 17.632142s59.174537-9.350378 59.174537-17.632142v-93.904514c-21.773024 9.617532-42.477433 14.960605-59.174537 14.960605s-37.267936-5.343073-59.174537-15.094182z" fill="#684C4B" p-id="6629"></path><path d="M1058.462823 702.61414c-17.765719-30.321941-45.416123-53.56431-78.142447-66.120532l-0.935038-0.40073c-29.52048-11.354031-61.97965-15.494913-93.770937-16.02922v0.133577c0.534307-3.339421 0.935038-6.678842 0.935038-10.018263v-38.202974c55.434386-26.314636 101.518393-62.246804 111.403079-123.692147 39.405166 1.202191 64.51761-25.112445 64.51761-72.799374 0-6.945995-3.205844-12.021915-8.148187-15.895643-7.346726-16.830681-26.715367-23.776676-48.354813-24.711714-2.805113-2.404383-5.209496-5.209496-7.079573-8.415341-2.404383 0-237.499609 3.072267-301.082181-108.731542-37.401513 51.827811-58.506653 127.165145-61.712496 179.26011h-2.270807c-5.343073-21.372293-9.617532-41.809549-12.823375-61.311766-23.375946 3.072267-42.210279 14.426298-42.21028 39.805896 0 47.686929 20.036525 74.001565 59.441691 72.799374 12.956953 79.478215 113.540308 124.360031 111.403078 123.55857v38.202974c0 3.339421 0.267154 6.678842 0.801461 10.018263-31.924863 0.534307-63.716149 4.808766-93.370206 15.895643l-2.270806 0.935038c-30.722672 12.556222-55.835116 32.325594-73.200104 59.308113C615.388469 504.653274 446.413775 90.297939 823.23402 92.168015S1028.541612 506.256196 1058.462823 702.61414z" fill="#ED758D" p-id="6630"></path><path d="M1058.462823 711.163058c-3.339421 0-6.411688-1.602922-8.148187-4.408036a145.198017 145.198017 0 0 0-73.600835-62.380381l-0.935038-0.40073c-25.112445-9.751109-54.365771-14.693452-89.362901-15.361336-0.801461 0.133577-1.602922 0.133577-2.404383 0-4.808766-0.534307-8.148187-4.808766-7.613879-9.617532v-0.267154c0.534307-2.93869 0.801461-5.743804 0.801461-8.682494v-38.202974c0-3.339421 2.003652-6.278111 5.075919-7.747456 65.452648-31.123402 98.312549-67.189147 106.460736-117.280459 0.935038-4.408035 4.942343-7.613879 9.483955-7.346726 14.960605 0.40073 27.249674-3.472998 36.466476-11.754761 12.021915-10.9533 18.433603-28.986173 18.433603-52.362119 0-3.873728-1.469345-6.545265-4.942343-9.350378-1.068615-0.935038-2.003652-2.003652-2.671537-3.339421-6.411688-14.827028-25.379598-18.700757-40.07305-19.235064-2.137229-0.133577-4.274459-0.935038-5.87738-2.270806-2.137229-1.870076-4.140882-3.873728-5.877381-6.144534-39.672319-0.267154-227.614923-6.411688-296.139838-100.850509-32.05844 50.62562-49.557005 118.616227-52.362119 163.364466-0.40073 4.675189-4.541612 8.281764-9.216801 8.148187h-2.270806c-4.140882 0.133577-7.881033-2.671537-9.083225-6.678842-4.675189-18.56718-8.548917-36.332899-11.487608-53.163579-25.246021 6.545265-25.246021 23.643099-25.246021 29.52048 0 25.112445 6.010957 43.813201 17.364988 54.098617 7.881033 7.079572 18.834333 10.418993 32.592747 10.15184 4.541612-0.267154 8.548917 2.805113 9.483956 7.346725 10.9533 67.456301 90.297939 109.265849 106.060005 117.013306 3.072267 1.469345 5.209496 4.541612 5.47665 7.881033v38.202974c0 2.93869 0.267154 5.743804 0.667884 8.548918 0.40073 2.53796-0.40073 5.07592-2.003652 6.945995-1.736499 2.003652-4.274459 3.072267-6.945996 3.072267-34.729977 0.534307-64.250457 5.610227-90.164362 15.361336l-2.270806 0.935038c-29.52048 12.021915-52.762849 30.722672-68.792069 55.701539-2.404383 3.606574-7.079572 5.07592-11.086877 3.606574-4.007305-1.202191-6.545265-5.343073-5.877381-9.483955 8.816071-49.824159 3.606574-115.811114-1.870075-185.671797-10.418993-131.306027-22.173754-280.244195 60.109574-362.393948 43.01174-42.878163 106.327159-63.716149 192.884947-63.181842 86.958518 0.40073 150.006783 21.773024 192.617793 65.319072 82.016175 83.752674 68.257762 234.026611 56.235846 366.801982-6.278111 69.59353-12.289069 135.313332-4.541612 185.938952 0.534307 4.274459-2.137229 8.148187-6.278111 9.350378-1.068615 0.133577-2.003652 0.267154-3.072267 0.267154zM895.632664 611.781894c33.527785 1.335768 62.246804 6.812418 87.225672 16.429951l0.935037 0.40073c23.776676 9.083225 45.015393 23.509523 62.246804 42.210279-2.404383-46.217584 2.53796-100.182625 7.747457-156.685625 2.671537-29.787634 5.47665-60.510305 7.213149-91.0994-3.472998 6.545265-8.01461 12.422645-13.49126 17.364989-10.9533 9.884686-25.379598 15.628489-41.809549 16.563527-14.025567 65.319071-67.857031 99.781894-109.933733 120.352726v32.859901c-0.133577 0.40073-0.133577 0.935038-0.133577 1.602922zM583.330029 431.586747c1.335768 25.646752 3.472998 51.293504 5.47665 76.272371 4.541612 57.170884 8.816071 111.803809 5.47665 158.021393 16.162797-15.895643 35.397861-28.451865 56.503-36.867205l2.404383-0.935038c25.513175-9.617532 54.098617-14.960605 86.958518-16.296374v-34.729976c-23.910253-12.422645-94.705974-54.098617-109.933733-120.21915-15.227759-0.935038-28.051135-5.877381-37.935821-14.827028-3.339421-3.072267-6.411688-6.545265-8.949647-10.418993zM1061.935821 354.379337c0.267154 0.267154 0.534307 0.534307 0.935037 0.801461-1.068615-77.207409-14.693452-148.270284-60.376728-194.755022-39.004435-39.805896-97.511088-59.308114-179.126533-59.708844h-2.53796c-80.012523 0-137.851291 18.834333-176.722149 57.705192-44.481085 44.347508-59.308114 111.536655-61.979651 185.003913 8.548917-8.548917 21.372293-14.159144 37.668667-16.296374 4.808766-0.801461 9.483955 2.404383 10.418993 7.213149 0.935038 5.47665 1.870076 11.086877 2.93869 16.830681 9.216801-45.683277 28.184712-98.045395 57.170885-138.252022 1.870076-2.53796 4.942343-4.007305 8.148187-3.740151 3.205844 0.133577 6.144534 1.870076 7.747456 4.541612 59.441691 104.59066 283.182885 104.323506 292.533264 104.18993 3.472998-0.133577 6.678842 1.602922 8.41534 4.541612 0.801461 1.469345 1.870076 2.805113 3.072267 4.007305 25.379598 1.870076 43.679624 11.754761 51.694235 27.917558z" fill="#684C4B" p-id="6631"></path><path d="M817.890947 530.032872c-27.383251 0-54.232194-8.682494-76.272371-25.112444-3.740151-2.53796-4.675189-7.747456-2.003653-11.487608 0.133577-0.267154 0.267154-0.40073 0.534307-0.667884 3.339421-3.740151 8.949648-4.408035 12.956953-1.469345 38.470128 28.451865 91.0994 28.451865 129.569528 0 4.007305-2.93869 9.617532-2.270806 12.956953 1.469345 2.93869 3.472998 2.53796 8.682494-0.935038 11.621185-0.267154 0.133577-0.40073 0.40073-0.667884 0.534307-21.906601 16.42995-48.621967 25.112445-76.138795 25.112444z" fill="#684C4B" p-id="6632"></path><path d="M636.360031 334.743543c-0.267154 3.339421-0.267154 6.678842-0.267153 10.018262v78.142448c0 8.548917 0.667884 16.964258 2.003652 25.379598-39.405166 1.202191-59.441691-25.112445-59.44169-72.799374 0-30.856248 27.917558-41.008088 57.705191-40.740934z" fill="#F0D0D3" p-id="6633"></path><path d="M635.424993 456.966345c-17.632142 0-32.05844-5.07592-43.145317-14.960605-15.227759-13.758414-22.975215-36.065745-22.975215-66.521263 0-13.624837 4.675189-24.845291 13.758414-33.260631 11.621184-10.686147 29.787634-16.42995 53.297156-16.02922l9.751109 0.133576-0.534307 9.083225c-0.267154 3.205844-0.267154 6.278111-0.267154 9.483955v78.142447c0 8.01461 0.667884 16.02922 2.003653 24.04383l1.602922 9.617532-10.418993 0.267154h-3.072268z m-8.682494-113.273154c-13.357683 1.068615-24.04383 4.808766-30.455518 10.686146-5.610227 5.209496-8.281764 12.021915-8.281763 20.971563 0 25.112445 6.010957 43.813201 17.231411 54.098617 5.877381 5.209496 13.357683 8.548917 22.307331 9.617532-0.534307-5.47665-0.801461-10.819723-0.801461-16.296373v-79.077485z" fill="#684C4B" p-id="6634"></path><path d="M611.11401 414.488912c-2.53796 0-4.808766-1.469345-5.877381-3.740151-4.541612-10.686147-9.350378-32.45917 1.068615-45.683277 6.278111-7.881033 16.42995-11.487608 30.188364-10.418993 3.339421 0.133577 6.010957 2.93869 5.877381 6.278111-0.40073 3.339421-3.339421 5.743804-6.678842 5.47665-9.216801-0.667884-15.628489 1.335768-19.101487 5.743804-6.678842 8.41534-3.339421 25.246021 0.534307 34.462823 1.202191 2.93869-0.267154 6.278111-3.205844 7.480303-0.133577 0-0.267154 0.133577-0.40073 0.133576-0.935038 0.133577-1.736499 0.267154-2.404383 0.267154z" fill="#684C4B" p-id="6635"></path><path d="M999.55544 334.743543c0.267154 3.339421 0.267154 6.678842 0.267153 10.018262v78.142448c0 8.548917-0.667884 16.964258-2.003652 25.379598 39.405166 1.202191 59.441691-25.112445 59.44169-72.799374 0-30.856248-27.783981-41.008088-57.705191-40.740934z" fill="#F0D0D3" p-id="6636"></path><path d="M1000.490477 456.966345h-2.93869l-10.418993-0.267154 1.602922-9.617532c1.335768-8.01461 2.003652-16.02922 2.003653-24.04383v-78.142447c0-3.205844-0.133577-6.278111-0.267154-9.483955l-0.534307-9.083225 9.751108-0.133576c23.242369-0.267154 41.675972 5.343073 53.297157 16.02922 9.083225 8.41534 13.758414 19.635794 13.758413 33.260631 0 30.321941-7.747456 52.762849-22.975215 66.387686-11.220454 10.018262-25.780329 15.094182-43.278894 15.094182z m8.682495-113.273154v79.077485c0 5.47665-0.267154 10.9533-0.801461 16.296373 9.083225-1.202191 16.563527-4.408035 22.307331-9.617532 11.354031-10.151839 17.364988-28.852596 17.364988-54.098617 0-8.949648-2.671537-15.895643-8.281764-20.971563-6.545265-5.743804-17.231411-9.483955-30.589094-10.686146z" fill="#684C4B" p-id="6637"></path><path d="M1024.801461 414.488912c-0.801461 0-1.602922-0.133577-2.270806-0.40073-3.072267-0.935038-4.675189-4.140882-3.740151-7.213149 0-0.133577 0.133577-0.267154 0.133576-0.400731 3.873728-9.216801 7.213149-25.913906 0.534308-34.462823-3.472998-4.408035-10.018262-6.411688-19.101487-5.743804-3.339421 0.40073-6.411688-2.137229-6.812419-5.47665-0.133577-3.339421 2.404383-6.144534 5.743804-6.278111 13.758414-0.935038 23.910253 2.53796 30.188364 10.418993 10.418993 13.224106 5.610227 34.99713 1.068615 45.683277-0.801461 2.404383-3.205844 3.873728-5.743804 3.873728z" fill="#684C4B" p-id="6638"></path><path d="M1086.914688 1013.581007l-1.602922-149.873206c0-160.826507-65.185494-234.560918-201.300287-237.098878-5.343073 32.859901-33.661362 57.037308-66.921993 57.170884-33.260631-0.133577-61.57892-24.310984-66.921993-57.170884C614.186277 629.146882 549.000783 702.881294 549.000783 863.707801l-1.602922 149.873206h539.516827z" fill="#F0D0D3" p-id="6639"></path><path d="M1097.066528 1023.465693H537.246021l1.736499-160.025046c0-163.498043 69.059223-244.312027 211.051396-246.983564l8.682494-0.133577 1.335768 8.548918c4.942343 31.524133 34.462823 53.030003 65.986956 48.087659 24.711714-3.873728 44.213932-23.375946 48.08766-48.087659l1.335768-8.548918 8.682494 0.133577c141.992173 2.53796 211.051396 83.351944 211.051396 247.117141l1.870076 159.891469z m-539.650405-20.036525h519.346726L1075.293504 863.707801c0-151.476128-56.636577-221.871119-183.267415-226.947039-11.487608 41.408818-54.365771 65.586225-95.641012 54.098617-26.314636-7.346726-46.885468-27.783981-54.098617-54.098617-126.630837 5.07592-183.267415 75.470911-183.267415 226.813462l-1.602922 139.854944z" fill="#684C4B" p-id="6640"></path><path d="M970.168536 741.752152c-7.079572-0.534307-5.07592-37.267936-4.541612-53.163579s1.469345-31.657709 2.93869-47.419776c0.801461-8.949648-5.209496-16.964258-13.89199-18.700756-2.003652-0.40073-4.007305-0.801461-6.010958-1.068615-3.740151-0.534307-7.480303-0.40073-11.086877 0.534307-3.472998 0.801461-6.545265 2.93869-8.548917 6.010958-2.137229 3.606574-2.404383 8.01461-2.404383 12.155492-0.801461 38.737282-1.602922 62.914688-2.53796 101.651969 0 1.469345-11.621184 9.884686-13.357683 11.621185-4.541612 4.675189-8.682494 9.483955-12.823376 14.426298-10.9533 13.09053-20.704409 27.116097-35.130707 36.733629-21.906601 14.426298-51.427081 18.56718-76.539525 10.9533-21.10514-6.411688-37.935821-22.040177-52.896426-37.53509-7.346726-7.613879-14.693452-14.693452-22.440908-21.773024-3.873728-3.606574-8.148187-6.945995-12.689799-9.617532-1.068615-0.667884-14.292721-5.877381-14.292721-4.808766 0 0 2.137229-57.438038 2.137229-96.57605 0-2.003652-0.133577-4.140882-0.534307-6.144534-0.133577-0.935038-0.534307-1.870076-0.935038-2.805114s-1.068615-1.602922-1.736499-2.270806c-1.068615-0.801461-2.270806-1.469345-3.606574-1.736499-2.404383-0.40073-4.808766-0.267154-7.079573 0.267154-2.53796 0.667884-5.209496 1.068615-7.881033 1.335768h-5.87738c-1.870076 0-3.740151 0.534307-5.209497 1.736499-2.270806 1.870076-2.53796 5.07592-2.805113 8.01461-3.072267 40.874511-5.743804 57.037308-8.01461 98.045396 0 0-8.949648 7.213149-9.751109 8.281763-30.455518 39.805896-18.032872 90.164362-8.816071 135.313332 8.816071 43.145317 19.368641 86.157057 32.45917 128.233759h313.905557c13.357683-57.170884 86.02348-264.749283 0-271.695278z" fill="#FFFFFF" p-id="6641"></path><path d="M977.915993 1023.465693H648.916254l-2.13723-7.079572c-13.09053-42.477433-23.910253-85.62275-32.726324-129.168798l-1.335768-6.812418c-9.216801-44.614662-19.635794-95.240282 12.021915-136.6491 2.404383-2.93869 5.07592-5.610227 8.01461-7.881033 1.335768-21.906601 2.671537-36.867206 4.140882-52.762849 1.068615-11.621184 2.270806-24.04383 3.472997-40.340204 0.267154-3.339421 0.801461-10.151839 6.278111-14.827028 3.205844-2.671537 7.213149-4.140882 11.354031-4.140882h5.877381c1.602922-0.133577 3.072267-0.40073 4.541612-0.801461l1.870076-0.40073c3.606574-0.801461 7.480303-0.935038 11.086877-0.267154 2.93869 0.534307 5.743804 2.003652 8.01461 3.873728 1.736499 1.469345 3.072267 3.205844 4.140882 5.209496 0.801461 1.602922 1.469345 3.472998 1.870075 5.343074 0.534307 2.671537 0.801461 5.47665 0.667885 8.281763 0 30.054787-1.335768 71.330029-1.870076 88.695017 3.072267 1.068615 6.010957 2.404383 8.949648 4.007305 5.209496 3.072267 10.018262 6.812418 14.426298 10.953301 7.613879 6.945995 15.094182 14.159144 22.975215 22.173754 13.49126 13.891991 29.386903 29.11975 48.621967 34.99713 22.574485 6.812418 48.755544 3.072267 68.124185-9.751109 10.55257-6.945995 18.56718-16.964258 27.116097-27.516827 2.003652-2.404383 4.007305-4.942343 6.010957-7.346726 3.740151-4.541612 8.41534-10.018262 13.357684-15.094182 0.667884-0.667884 2.805113-2.404383 5.209496-4.408036 1.335768-1.068615 3.606574-2.93869 5.343073-4.274458 0.40073-17.498565 0.801461-32.192017 1.202192-46.751892 0.40073-15.762066 0.801461-31.657709 1.202191-51.02635 0.133577-4.408035 0.267154-11.220454 3.873728-17.097834 3.339421-5.209496 8.41534-8.816071 14.292722-10.418993 4.942343-1.335768 10.018262-1.602922 15.094182-0.935038 2.270806 0.267154 4.408035 0.667884 6.678841 1.202191 13.758414 2.805113 23.108792 15.494913 21.773024 29.52048-1.335768 15.494913-2.404383 31.256979-2.93869 46.885469l-0.133577 4.408035c-0.267154 7.881033-1.068615 30.054787 0.40073 39.004435 12.956953 1.870076 24.44456 9.216801 31.791287 19.902948 32.325594 46.351161 0.133577 161.895121-19.101488 230.954344-3.740151 13.224106-6.812418 24.578137-8.682494 32.592747l-1.870075 7.747457z m-314.306288-20.036525h298.544221c1.870076-7.346726 4.274459-16.02922 7.079573-25.780329 17.097835-61.311766 48.889121-175.519958 22.040177-214.123663-5.209496-7.480303-12.155492-11.220454-21.906601-12.021915-15.227759-1.202191-15.227759-23.242369-13.89199-59.04096l0.133577-4.408035c0.534307-16.02922 1.602922-32.192017 2.93869-47.954083 0.40073-3.740151-2.137229-7.346726-5.877381-8.148187-1.736499-0.40073-3.606574-0.667884-5.343073-0.935038-2.404383-0.40073-4.808766-0.267154-7.079572 0.267154-1.068615 0.267154-2.003652 0.801461-2.671537 1.602922-0.801461 1.335768-0.935038 4.675189-0.935038 7.079572-0.40073 19.502218-0.801461 35.397861-1.202191 51.159927-0.40073 15.628489-0.801461 31.256979-1.202192 50.492043-0.133577 5.743804-3.873728 8.682494-12.823376 15.762066-1.469345 1.202191-2.805113 2.270806-3.472997 2.805113-4.274459 4.408035-8.548917 9.350378-12.021915 13.758414-2.003652 2.404383-3.873728 4.675189-5.743804 7.079572-9.083225 11.220454-18.433603 22.975215-31.657709 31.65771-24.177407 16.02922-56.770154 20.704409-84.954866 12.155491-23.776676-7.213149-42.076702-24.44456-57.170884-40.206626-7.480303-7.747456-14.693452-14.693452-22.040178-21.372294-3.339421-3.205844-6.945995-6.010957-10.9533-8.281763-1.202191-0.534307-8.548917-3.339421-10.418993-3.740152 2.53796 0.40073 5.07592-0.267154 7.213149-1.870075l-6.010958-7.747456-10.151839-0.400731c0-1.870076 2.137229-58.105922 2.137229-96.17532 0-1.068615 0-2.003652-0.133576-3.072267-0.40073 0-1.068615 0.133577-2.003653 0.267154l-1.602922 0.267154c-2.53796 0.534307-5.07592 0.935038-7.613879 1.202191h-4.408036v0.534307c-1.202191 16.42995-2.404383 28.986173-3.606574 40.740934-1.602922 17.632142-3.072267 32.726324-4.408036 57.170885l-0.801461 15.762066-8.01461-4.274459c-1.602922 1.335768-3.072267 2.53796-3.606574 3.072268-25.513175 33.527785-16.563527 77.340986-7.747457 119.818419l1.335769 6.812418c8.949648 43.679624 18.834333 82.951213 30.054787 120.085573z m250.590138-261.944169z" fill="#684C4B" p-id="6642"></path><path d="M438.532742 505.054005c2.003652-14.960605-15.895643-20.437255-26.715367-25.112445-16.964258-7.346726-36.600052-9.751109-54.900078-11.487607-37.401513-3.472998-75.738064-0.267154-112.60527 2.93869-16.697104 1.469345-34.195669 3.740151-47.286199 14.159144-6.010957 4.808766-15.227759 6.678842-15.227759 17.097835l28.184712 2.404383v37.802243l38.069397-1.068614 5.07592-21.372294 56.10227 22.975216 61.712497-22.975216v28.986173l37.53509 0.935038v-45.282546h30.054787z" fill="#ED758D" p-id="6643"></path><path d="M413.153144 555.01174l-46.618315-1.202191v-26.848944l-57.170884 21.238717-52.762849-21.639447-4.675189 19.635794-46.351161 1.202192v-38.336551l-28.184712-2.404383v-4.140882c0-10.285416 7.213149-14.559875 12.422645-17.765719 1.602922-0.935038 3.072267-1.870076 4.541613-2.93869 14.159144-11.220454 32.325594-13.624837 49.824158-15.094182 35.130707-3.072267 74.803026-6.411688 113.406731-2.938691 18.96791 1.736499 39.004435 4.408035 56.235847 11.754762l3.472998 1.469345c11.220454 4.541612 28.184712 11.621184 25.913905 28.451865l-0.534307 4.007305h-29.386903l-0.133577 45.5497z m-37.53509-10.018262l28.451865 0.667884v-45.14897h29.787634c-1.602922-6.678842-9.751109-10.55257-20.170102-14.827028l-3.606574-1.469345c-16.162797-6.945995-35.264284-9.483955-53.56431-11.086877-37.668667-3.472998-77.073833-0.133577-111.670233 2.93869-16.02922 1.335768-32.859901 3.472998-44.881815 13.224106-1.736499 1.335768-3.606574 2.53796-5.47665 3.606575-3.472998 2.003652-5.877381 3.606574-7.079573 5.743804l27.249674 2.270806v37.267936l29.921211-0.801461 5.47665-23.108792 59.441691 24.310984 66.120532-24.711714V544.993478z" fill="#684C4B" p-id="6644"></path><path d="M414.355335 556.213932l-49.022697-1.202192v-26.314636l-55.968693 20.837986-51.961388-21.238716-4.541613 19.101487-48.48839 1.335768V510.263501l-28.184712-2.404383v-5.343073c0-11.086877 7.480303-15.494913 13.09053-18.834334 1.469345-0.801461 2.93869-1.736499 4.274459-2.805113 14.292721-11.487608 32.726324-13.891991 50.492042-15.361336 35.130707-2.93869 75.07018-6.411688 113.540308-2.93869 19.101487 1.736499 39.271589 4.408035 56.636577 11.888338l3.472998 1.469345c10.819723 4.408035 29.11975 11.888338 26.715367 29.654057l-0.667885 4.942343h-29.253326v45.683277h-0.133577z m-37.53509-12.422646l25.913906 0.667884v-45.148969h29.386903c-2.404383-5.209496-9.751109-8.682494-18.96791-12.422646l-3.606575-1.469345c-15.895643-6.812418-34.99713-9.350378-53.163579-10.9533-37.53509-3.472998-76.806679-0.133577-111.536656 2.93869-15.895643 1.335768-32.45917 3.472998-44.213931 12.956953-1.736499 1.335768-3.740151 2.671537-5.610227 3.740151s-3.740151 2.270806-5.343073 3.740152l26.181059 2.137229V536.978868l27.783981-0.801461 5.47665-23.6431 60.243152 24.578138 67.322723-25.112445 0.133577 31.791286z" fill="#684C4B" p-id="6645"></path><path d="M419.030524 560.889121l-58.105922-1.469345v-24.177407l-51.694234 19.235064-48.621967-19.902948-4.007305 17.364988-56.636577 1.602922v-38.870858l-28.184712-2.404383v-9.483955c0-13.624837 9.617532-19.368641 15.227759-22.708062 1.335768-0.801461 2.53796-1.602922 3.873728-2.404383 15.361336-12.289069 34.5964-14.827028 52.896426-16.42995 35.397861-3.072267 75.470911-6.411688 114.341769-2.938691 19.502218 1.736499 40.07305 4.541612 57.972345 12.289069l3.472998 1.469345c11.220454 4.675189 32.325594 13.224106 29.386903 34.5964l-1.202192 8.949647h-28.585442v45.282547h-0.133577z m-49.022697-10.285416l39.939473 0.935037v-45.416123h29.787633l0.133577-1.068614c1.736499-13.224106-10.819723-19.502218-23.910253-24.845291l-3.472997-1.469345c-16.830681-7.213149-36.466475-9.884686-55.300809-11.621185-38.069397-3.472998-77.741717-0.133577-112.60527 2.938691-17.097835 1.469345-34.729977 3.740151-48.08766 14.426297-1.335768 1.068615-2.805113 2.003652-4.274459 2.805114-5.209496 3.072267-10.018262 5.877381-11.086877 12.289069l5.610227-5.476651c1.870076-1.736499 4.007305-3.205844 6.144535-4.408035 1.736499-1.068615 3.472998-2.137229 5.075919-3.339421 12.823376-10.285416 30.054787-12.422645 46.618315-13.89199 34.99713-2.93869 74.402296-6.411688 112.338116-2.938691 18.56718 1.736499 38.069397 4.274459 54.499348 11.354031l3.472998 1.469345c9.884686 4.007305 18.300026 8.01461 21.372293 14.827029l2.805113 6.411688H407.40934v45.282546l-34.99713-0.935038v-29.52048l-62.914688 23.375946-57.037308-23.108792-5.07592 21.9066-35.932168 0.935038v-37.668667l-30.589094-2.53796v2.404383l28.184711 2.404383v37.935821l40.340204-1.068615 4.942343-20.971563 55.167232 22.574485 60.510305-22.574485v28.585443z m11.487607-11.220454l16.830681 0.40073v-45.015392h21.639447c-2.53796-1.335768-5.47665-2.53796-8.41534-3.740152l-3.606575-1.469345c-15.361336-6.678842-34.062092-9.083225-51.827811-10.686147-37.13436-3.472998-76.138795-0.133577-110.601617 2.938691-15.361336 1.335768-31.123402 3.339421-41.943126 12.021915l-0.534307 0.40073 17.498565 1.469345v36.600053l19.502217-0.534308 6.010958-25.379598 63.582572 26.047482 71.864336-26.715366v33.661362z" fill="#684C4B" p-id="6646"></path><path d="M290.262458 1013.581007h38.202974l-1.870076-128.233759 82.016175-280.91208V550.336551h-31.524132l-6.010958-0.935038-0.534307 23.776676-15.361336 11.487608-45.683276-27.249674-44.080355 27.249674-15.494913-11.487608-1.736499-31.390555h-18.300026c-5.07592 0.267154-14.693452 0.667884-19.902948 1.068614v61.712497l81.882599 280.912079-1.602922 128.100183z" fill="#FFFFFF" p-id="6647"></path><path d="M333.140621 1018.122619h-47.419776l2.003653-132.107487L205.708322 604.568745v-65.986955l4.274459-0.267154c2.671537-0.133577 6.411688-0.40073 10.151839-0.534307s7.213149-0.267154 9.617532-0.534308h22.841639l1.870075 33.527785 11.220454 8.415341 43.813202-27.116097 45.416123 27.116097 11.220454-8.281764 0.534307-26.715366 11.086877 1.736499 35.397861-0.133577-0.133577 59.975998L331.270545 885.881555l1.870076 132.241064z m-38.202974-9.083224h28.986172l-1.736498-124.226455 0.133576-0.667884 81.882599-280.244195v-49.022698h-26.98252l-1.469345-0.267153-0.400731 20.837986-19.635794 14.693451-45.950431-27.383251-44.347508 27.383251-19.635795-14.693451-1.602922-29.253327h-13.89199c-2.270806 0.133577-5.877381 0.267154-9.617532 0.534308l-5.743804 0.267153V603.767284l82.016175 280.912079-2.003652 124.360032z" fill="#684C4B" p-id="6648"></path><path d="M334.342812 1019.324811h-49.957735l2.003652-133.176102L204.372554 604.568745v-67.05557l5.47665-0.40073c2.53796-0.133577 6.144534-0.267154 9.884686-0.534308s7.480303-0.267154 10.018262-0.534307h24.04383l1.870076 34.195669 10.151839 7.480303 43.679625-27.116097 45.416123 26.98252 10.018262-7.480303 0.534307-27.650404 12.556223 2.003652 36.332898-0.133576-0.267153 61.578919-81.749022 280.110619 2.003652 133.309679z m-38.202974-11.487608h26.448213l-1.870076-123.15784 0.267154-0.801461L402.867728 603.767284v-47.686929H376.686668l-0.40073 20.036525-20.837986 15.494912-45.95043-27.38325-44.347509 27.516827-20.704409-15.494912-1.602922-28.585443h-12.823376c-2.270806 0.133577-6.144534 0.267154-9.884686 0.534308l-4.140881 0.267153V603.767284L297.876337 884.679363l-1.736499 123.15784z" fill="#684C4B" p-id="6649"></path><path d="M339.018002 1023.866423h-59.174537l2.003652-137.183407-82.016175-282.247848V532.971563l9.617532-0.667884c2.270806-0.133577 5.610227-0.267154 8.949648-0.534308 4.675189-0.267154 8.281764-0.40073 10.819723-0.534307l28.719019-0.133577 2.003653 36.332899 5.87738 4.408035 43.546048-26.848943 45.148969 26.848943 5.877381-4.408035 0.667884-30.589095 17.632142 2.805113 40.206627-0.133576-0.400731 67.4563-81.481868 279.442734 2.003653 137.450561z m-49.957736-9.083224h40.740934l-1.870076-129.168798 0.133577-0.667884 81.615445-279.442734 0.267154-56.369423-31.791286 0.133576-8.01461-1.335768-0.534308 24.578137-14.292721 10.686147-45.5497-27.249674-44.080355 27.116097-14.292721-10.686147-1.736499-31.924863h-19.769371c-2.270806 0.133577-6.144534 0.267154-9.884685 0.534308-4.274459 0.267154-7.480303 0.40073-9.751109 0.534307h-1.202192v62.380381L290.930342 885.614401l-1.870076 129.168798z m38.202974-2.404383h-35.798591l1.870076-127.165145L211.318549 603.767284v-59.842421l8.548918-0.40073c4.408035-0.267154 7.747456-0.40073 9.751109-0.534308H247.117141l1.736498 30.856249 16.563528 12.289068 44.213931-27.249674 45.683277 27.249674 16.563527-12.289068 0.534308-22.975216 5.075919 0.801461H407.40934l-0.133577 53.430733-81.749022 279.977042 1.736499 127.298722z m-26.448213-9.083225h17.231412l-1.736499-119.284112 0.133577-0.667884 81.882598-280.244195v-42.343856h-17.097834l-0.400731 17.765719-24.978868 18.567179-46.217584-27.516827-44.748239 27.516827-24.845291-18.567179-1.469345-26.448213h-8.548917c-1.736499 0.133577-5.209496 0.267154-8.682494 0.40073h-0.935038v50.358466l82.016175 280.91208-1.602922 119.551265z" fill="#684C4B" p-id="6650"></path><path d="M606.03809 1013.581007c1.068615-141.72502 1.335768-201.834594 2.404383-350.372032 0.133577-14.559875 0-30.054787-8.01461-39.805896-6.411688-7.881033-17.765719-8.816071-27.249674-13.491261-72.13149-35.130707-77.073833-37.935821-132.107487-66.654839-2.805113-12.556222-3.606574-25.379598-2.404383-38.202974h-30.054788v99.51474c0 4.675189-82.016175 280.912079-82.016175 280.912079 0.40073 39.004435 0.935038 115.811114 1.335768 128.23376l278.106966-0.133577z" fill="#ED758D" p-id="6651"></path><path d="M608.308896 616.724237c-6.144534-7.480303-14.693452-10.418993-22.708061-13.09053-2.671537-0.801461-5.47665-1.870076-8.01461-3.072267-68.124185-33.260631-76.405948-37.668667-122.757109-61.846073l-4.67519-2.404383c-1.736499-10.018262-2.137229-20.170102-1.202191-30.321941l1.068615-11.220454h-51.560658l0.133577 108.330811c-1.202191 6.678842-43.01174 148.938169-81.882599 280.244195l-0.133576 1.602922v0.667884c0.133577 11.754761 0.267154 26.98252 0.40073 42.878164l0.133577 10.018262c0.267154 33.127055 0.534307 67.456301 0.801461 75.470911l0.40073 10.018262h298.277068l0.133577-10.285416c0.40073-58.907383 0.667884-103.655622 1.068615-146.533786l0.267153-48.88912c0.267154-44.347508 0.534307-91.633707 1.068615-154.949126-0.267154-14.960605-0.133577-33.527785-10.819724-46.618315z m-189.278372-12.155492v-89.095747h8.682495c-0.133577 10.151839 0.935038 20.303679 3.205844 30.188364l1.068614 4.541612 13.357683 6.945995c46.751891 24.44456 55.167232 28.852596 123.15784 61.979651 3.606574 1.736499 7.346726 3.072267 11.086877 4.274459 5.47665 1.870076 10.285416 3.472998 12.689799 6.411688 5.877381 7.213149 5.877381 21.639447 5.743804 33.260631-0.534307 69.727107-0.801461 119.951996-1.068614 168.173232l-0.133577 24.310984c-0.267154 43.946778-0.534307 88.695017-1.068615 147.6024H338.082964c-0.267154-14.426298-0.40073-39.939473-0.534308-64.918341-0.133577-18.700757-0.267154-37.401513-0.534307-51.42708 82.016175-276.103313 82.016175-280.511349 82.016175-282.247848z" fill="#684C4B" p-id="6652"></path><path d="M12.689799 1013.581007h277.973389c0.40073-12.422645 0.935038-89.095747 1.335768-128.233759 0 0-82.016175-276.23689-82.016175-280.91208v-99.381163h-29.92121c1.202191 12.823376 0.40073 25.646752-2.404383 38.202974-72.13149 30.856248-72.13149 30.856248-131.973911 66.654839-9.083225 5.47665-14.159144 4.007305-20.704409 11.754762-8.01461 9.751109-14.827028 26.98252-14.693452 41.542395 1.202191 148.537438 1.335768 208.513436 2.404383 350.372032z" fill="#ED758D" p-id="6653"></path><path d="M302.150796 882.408557c-33.527785-112.60527-80.413253-272.096008-81.615445-277.973389v-109.800156h-51.560658l1.068615 11.220454c0.935038 10.018262 0.534307 20.036525-1.202191 29.787633-67.857031 28.986173-69.59353 30.054787-128.367337 65.185495-2.270806 1.335768-4.675189 2.404383-7.213149 3.339421-4.808766 1.736499-10.418993 3.740151-16.162796 10.819723C6.945995 627.410384 0 647.179755 0 663.208975c0.534307 69.59353 0.801461 119.818419 1.202191 168.039655v10.285416c0.267154 51.159927 0.667884 101.518393 1.202192 172.180538l0.133577 10.285416h298.277067l0.400731-10.018262c0.267154-7.747456 0.534307-40.07305 0.801461-71.330029l0.133577-14.159144c0.133577-15.895643 0.267154-31.123402 0.40073-43.813202l-0.40073-2.270806z m-115.543961-331.671275l1.202192-5.07592c2.270806-9.884686 3.339421-20.036525 3.205844-30.188364h8.816071v89.095747c0 1.736499 0 6.144534 82.016175 282.247848-0.133577 14.025567-0.267154 32.726324-0.534307 51.42708v4.140882c-0.267154 23.643099-0.40073 47.152622-0.667884 60.777459H22.975215c-0.40073-57.838769-0.667884-102.0527-1.068614-145.06444l-0.133577-26.848944c-0.267154-48.354813-0.667884-98.579703-1.202192-168.173232-0.133577-12.823376 6.278111-27.516828 12.289069-34.863553 2.137229-2.671537 3.606574-3.205844 7.213149-4.541613 3.740151-1.335768 7.346726-2.93869 10.686146-4.942343 59.308114-35.397861 59.308114-35.397861 130.905297-65.986955l4.942342-2.003652z" fill="#684C4B" p-id="6654"></path><path d="M309.363945 63.849726c95.373859 0 173.516306 78.00887 173.516305 173.516306v88.294286c0 58.907383-31.390556 114.341769-83.48552 141.858597-130.771719 69.059223-263.547091-25.780329-263.547091-150.273937v-79.878946c0-95.507435 78.142447-173.516306 173.516306-173.516306z" fill="#F0D0D3" p-id="6655"></path><path d="M374.683016 477.804331v30.989825c-0.133577 36.065745-29.253326 65.185494-65.319071 65.319071-36.065745-0.133577-65.185494-29.253326-65.319072-65.319071v-30.989825c20.704409 8.548917 42.878163 12.823376 65.319072 12.823376 22.440908 0.133577 44.614662-4.274459 65.319071-12.823376z" fill="#F0D0D3" p-id="6656"></path><path d="M309.363945 578.65484c-38.603705 0-69.727107-31.256979-69.860684-69.860684v-37.802244l6.278111 2.53796c40.740934 16.563527 86.424211 16.563527 127.165145 0l6.278111-2.53796v37.668667c-0.133577 38.737282-31.390556 69.99426-69.860683 69.994261z m-60.777459-94.171668v24.310984c0.534307 33.527785 28.051135 60.376728 61.57892 59.842421 32.859901-0.534307 59.308114-26.98252 59.842421-59.842421v-24.310984c-39.138012 14.292721-82.149752 14.292721-121.421341 0z" fill="#684C4B" p-id="6657"></path><path d="M309.363945 580.658492c-39.672319 0-71.864336-32.192017-71.864336-71.864336v-40.740934l9.083224 3.740151c40.206627 16.42995 85.355596 16.42995 125.562223 0l9.083225-3.740151v40.740934c-0.133577 39.672319-32.192017 71.864336-71.864336 71.864336z m-58.773807-93.236629v21.372293c-0.534307 32.45917 25.379598 59.04096 57.838769 59.575267s59.04096-25.379598 59.575267-57.838768v-23.108792c-38.069397 13.09053-79.344639 13.09053-117.414036 0z" fill="#684C4B" p-id="6658"></path><path d="M309.363945 585.200104c-42.210279 0-76.405948-34.195669-76.405949-76.405948v-47.553352l15.361336 6.278111c39.138012 15.895643 82.951213 15.895643 122.089225 0l15.361336-6.278111v47.553352c0 42.210279-34.195669 76.405948-76.405948 76.405948z m-67.322724-110.334464v33.928516c0 37.13436 30.188364 67.322724 67.322724 67.322724s67.322724-30.188364 67.322723-67.322724v-33.928516l-2.805113 1.202192c-41.408818 16.830681-87.626402 16.830681-129.035221 0l-2.805113-1.202192z m67.322724 97.243935c-34.863553 0-63.181842-28.318289-63.315419-63.181842v-27.783981l6.010957 2.137229c37.000783 12.823376 77.340986 12.823376 114.475346 0l6.010958-2.137229V508.927733c0 34.863553-28.318289 63.048265-63.181842 63.181842z m-54.098618-78.409601v15.094182c0 29.921211 24.310984 54.098617 54.232195 54.098617s54.098617-24.177407 54.098617-54.098617v-15.094182c-35.397861 10.819723-73.066528 10.819723-108.330812 0zM309.363945 424.640751c-25.913906 0-51.02635-8.949648-71.330029-25.112444-2.805113-2.270806-3.339421-6.411688-1.068615-9.216802s6.411688-3.339421 9.216802-1.068614c36.867206 29.787634 89.496478 29.787634 126.363684 0 2.805113-2.270806 6.945995-1.736499 9.216801 1.068614 2.270806 2.805113 1.736499 6.945995-1.068615 9.216802-20.303679 16.162797-45.416123 25.112445-71.330028 25.112444z" fill="#684C4B" p-id="6659"></path><path d="M309.363945 429.182364c-26.98252 0-53.030003-9.216801-74.135142-26.18106-4.808766-3.740151-5.610227-10.819723-1.870076-15.628489s10.819723-5.610227 15.628489-1.870076c35.130707 28.451865 85.489173 28.451865 120.61988 0 4.808766-3.740151 11.888338-2.93869 15.62849 1.870076 3.740151 4.808766 2.93869 11.888338-1.870076 15.628489a117.494182 117.494182 0 0 1-74.001565 26.18106z m-67.189147-36.867206c-0.667884 0-1.202191 0.267154-1.602922 0.801461-0.667884 0.935038-0.534307 2.137229 0.40073 2.805113 39.939473 32.192017 96.976781 32.192017 136.916254 0 0.801461-0.801461 0.935038-1.870076 0.267154-2.805113s-2.003652-1.068615-2.805114-0.400731c-38.470128 31.123402-93.503783 31.123402-131.973911 0-0.40073-0.267154-0.801461-0.40073-1.202191-0.40073z" fill="#684C4B" p-id="6660"></path><path d="M136.114793 227.080616c-0.133577 3.339421-0.267154 6.812418-0.267154 10.151839v79.878946c0 8.682494 0.667884 17.498565 2.003652 26.047482-37.53509 1.202191-56.636577-25.646752-56.636577-74.535872 0-31.524133 26.58179-41.809549 54.900079-41.542395z" fill="#F0D0D3" p-id="6661"></path><path d="M135.446908 347.834073c-15.628489 0-28.451865-4.808766-38.202974-14.159145-13.624837-13.224106-20.570832-34.99713-20.570832-64.91834 0-12.689799 4.007305-23.242369 11.888338-30.989826 12.956953-12.823376 33.260631-15.494913 47.686929-15.227759h4.808766l-0.267153 4.808766c-0.133577 3.339421-0.267154 6.545265-0.267154 9.884686v79.878946c0 8.41534 0.667884 16.964258 1.870076 25.379598l0.801461 5.07592-5.209497 0.133577-2.53796 0.133577z m-4.007305-116.078268c-12.155492 0.40073-26.98252 3.205844-36.466475 12.556222-6.144534 6.010957-9.216801 14.292721-9.216801 24.578137 0 27.383251 6.010957 46.885468 17.765718 58.373076 7.346726 7.079572 17.097835 10.9533 29.11975 11.487608-0.935038-7.079572-1.335768-14.292721-1.335768-21.372293v-79.878946c0-2.137229 0-4.007305 0.133576-5.743804z" fill="#684C4B" p-id="6662"></path><path d="M135.313332 349.837725c-16.162797 0-29.52048-4.942343-39.538743-14.693452-14.025567-13.624837-21.238716-35.932168-21.238716-66.387685 0-13.357683 4.274459-24.177407 12.422645-32.459171 13.49126-13.357683 34.195669-15.895643 49.156275-15.762066h6.945995l-0.400731 6.945995c-0.133577 3.205844-0.267154 6.545265-0.267153 9.884686v79.878946c0 8.41534 0.667884 16.697104 1.870075 24.978868l1.068615 7.346725-7.480303 0.267154h-2.537959z m-6.010958-115.944691c-14.559875 0.801461-26.047482 4.942343-32.993478 11.754761-5.743804 5.610227-8.548917 13.357683-8.548917 23.108793 0 26.715367 5.743804 45.95043 17.231412 56.90373 6.545265 6.278111 14.960605 9.884686 25.379598 10.819724-0.667884-6.411688-1.068615-12.823376-1.068615-19.235064v-79.878946-3.472998z" fill="#684C4B" p-id="6663"></path><path d="M309.363945 52.629272c-94.705974 0-172.981998 71.730759-183.400992 163.63162-14.025567 1.202191-30.589095 5.343073-42.076702 16.697104-9.216801 9.083225-13.758414 21.10514-13.758414 35.665015 0 31.791286 7.613879 55.167232 22.574485 69.59353 9.483955 9.216801 21.50587 14.426298 35.932168 15.762066 10.418993 49.957735 41.408818 94.572398 86.02348 121.421341 28.451865 17.364988 61.178189 26.448213 94.572398 26.314636 32.45917 0 64.51761-8.281764 95.373858-24.578137 55.167232-29.11975 89.496478-87.225672 89.496478-151.743282v-88.294287c-0.133577-101.65197-82.951213-184.469606-184.736759-184.469606zM125.295069 331.136968c-6.411688-1.202191-12.422645-4.274459-17.097834-8.682494-10.418993-10.151839-15.762066-28.184712-15.762067-53.697886 0-8.41534 2.404383-15.094182 7.213149-19.769372 5.343073-5.209496 14.159144-8.682494 25.112445-10.018262v78.409601c0 4.541612 0.133577 9.083225 0.534307 13.758413z m-26.314636 0.667885c-13.09053-12.689799-19.769371-33.928516-19.769371-63.048265 0-12.021915 3.740151-21.906601 11.086877-29.11975 9.216801-9.216801 22.708062-12.823376 34.863553-14.025567-0.133577 1.335768-0.133577 2.671537-0.267153 4.140881-13.758414 1.469345-24.711714 5.743804-31.791287 12.823376-6.545265 6.545265-9.884686 15.361336-9.884685 26.314636 0 28.051135 6.278111 48.221237 18.56718 60.243152 6.411688 6.278111 14.693452 10.151839 24.44456 11.621184 0.133577 1.469345 0.40073 2.805113 0.667884 4.140882-11.220454-1.602922-20.570832-5.877381-27.917558-13.090529z m372.679364-94.438821v88.294286c0 56.10227-29.654057 106.727889-77.60814 131.973911-56.235847 29.654057-117.547613 29.253326-168.173233-1.202191-42.477433-25.646752-71.062875-69.459953-77.60814-117.814767 0-0.267154 0-0.534307-0.133576-0.801461-0.133577-1.469345-0.40073-2.805113-0.534308-4.274459 0-0.534307-0.133577-1.068615-0.133577-1.736498-0.133577-1.202191-0.267154-2.404383-0.267153-3.606575 0-0.935038-0.133577-1.736499-0.133577-2.671537s-0.133577-1.870076-0.133577-2.805113c0-1.870076-0.133577-3.740151-0.133577-5.610227v-79.878946-0.267154c0-1.469345 0-2.93869 0.133577-4.274458 0-0.667884 0-1.335768 0.133577-2.003653 0-0.667884 0-1.469345 0.133577-2.137229 4.541612-85.62275 75.337334-153.613358 162.162275-153.613358 89.630055 0.133577 162.295852 72.665797 162.295852 162.429429z" fill="#684C4B" p-id="6664"></path><path d="M482.613097 227.080616c0.133577 3.339421 0.267154 6.812418 0.267153 10.151839v79.878946c0 8.682494-0.667884 17.498565-2.003652 26.047482 37.53509 1.202191 56.636577-25.646752 56.636577-74.535872 0.133577-31.524133-26.58179-41.809549-54.900078-41.542395z" fill="#F0D0D3" p-id="6665"></path><path d="M483.414558 347.834073H480.876598l-5.07592-0.133577 0.801461-5.07592c1.335768-8.41534 1.870076-16.830681 1.870076-25.379598v-79.878946c0-3.339421-0.133577-6.678842-0.267154-10.018263l-0.267153-4.808766h4.808766c14.827028-0.267154 34.729977 2.404383 47.686929 15.227759 7.881033 7.747456 11.888338 18.166449 11.888338 30.989826 0 29.921211-6.945995 51.694234-20.570832 64.91834-9.884686 9.350378-22.708062 14.159144-38.336551 14.159145z m4.007305-116.078268c0 1.870076 0.133577 3.740151 0.133577 5.610227v79.878946c0 7.079572-0.40073 14.292721-1.335769 21.372293 12.021915-0.534307 21.639447-4.408035 29.11975-11.487608 11.754761-11.487608 17.765719-31.123402 17.765719-58.373075 0-10.285416-3.072267-18.433603-9.216802-24.578138-9.483955-9.350378-24.310984-12.021915-36.466475-12.422645z" fill="#684C4B" p-id="6666"></path><path d="M483.414558 349.837725h-2.671537l-7.346726-0.267154 1.068615-7.346725c1.202191-8.281764 1.870076-16.697104 1.870076-24.978868v-80.012523c0-3.339421-0.133577-6.545265-0.267154-9.884686l-0.400731-6.945995h6.945996c14.960605-0.133577 35.665014 2.53796 49.156274 15.762066 8.281764 8.148187 12.422645 19.101487 12.422646 32.459171 0 30.455518-7.079572 52.762849-21.238717 66.387686-10.018262 9.884686-23.375946 14.827028-39.538742 14.827028z m6.010957-115.944691v83.351944c0 6.411688-0.267154 12.823376-0.935038 19.235064 10.418993-0.935038 18.834333-4.541612 25.379599-10.819724 11.354031-11.086877 17.231411-30.188364 17.231411-56.90373 0-9.617532-2.93869-17.498565-8.548917-23.108793-7.079572-6.812418-18.56718-10.9533-33.127055-11.754761z" fill="#684C4B" p-id="6667"></path><path d="M483.414558 354.379337h-13.624837l1.469345-12.956952c1.202191-8.01461 0.534307-16.02922 0.534307-24.177407v-79.878946c0-3.205844-0.133577-6.411688-0.267153-9.617532l-0.667884-11.621185 11.754761-0.133576c16.162797 0 37.935821 2.805113 52.362118 17.097834 9.216801 9.083225 13.891991 21.10514 13.891991 35.665015 0 31.791286-7.613879 55.167232-22.574485 69.593529-11.086877 10.686147-25.513175 16.02922-42.878163 16.02922z m-4.808766-9.216801l4.808766 0.133577c14.960605 0 27.249674-4.541612 36.466475-13.49126 13.09053-12.689799 19.769371-33.928516 19.769371-63.048265 0-12.021915-3.740151-21.906601-11.086877-29.253327-12.289069-12.155492-31.390556-14.292721-45.95043-14.426298h-2.13723l0.133577 2.13723c0.267154 3.339421 0.267154 6.678842 0.267154 10.151839v79.878946c0 8.548917-0.667884 17.231411-1.870076 25.646752l-0.40073 2.270806z m4.675189-3.740151l0.667884-5.476651c0.667884-6.278111 0.935038-12.422645 1.068615-18.700756l-0.133577-88.16071 4.942343 0.267154c15.762066 0.935038 28.184712 5.47665 35.932168 13.090529 6.545265 6.545265 9.884686 15.361336 9.884685 26.314637 0 28.051135-6.278111 48.221237-18.567179 60.243151-7.346726 7.079572-16.697104 11.086877-28.184712 12.021915l-5.610227 0.400731z m10.686147-102.587008v78.409601c0 4.675189-0.133577 9.350378-0.534308 13.89199 6.411688-1.202191 12.422645-4.274459 17.097835-8.682494 10.418993-10.151839 15.762066-28.184712 15.762066-53.697886 0-8.41534-2.404383-15.094182-7.213149-19.902949-5.209496-5.209496-14.025567-8.682494-25.112444-10.018262z" fill="#684C4B" p-id="6668"></path><path d="M506.656927 308.562484c-3.339421 0-6.010957-2.671537-6.010958-6.010958 0-0.801461 0.133577-1.469345 0.400731-2.270806 3.740151-9.350378 6.812418-26.58179 0.534307-35.264284-3.339421-4.541612-9.483955-6.545265-18.166449-5.87738-3.339421 0.267154-6.144534-2.270806-6.411688-5.610227-0.267154-3.339421 2.270806-6.144534 5.610227-6.411688 13.224106-0.935038 22.841638 2.671537 28.852596 10.686146 10.018262 13.49126 5.343073 35.798591 1.068614 46.751892-1.068615 2.404383-3.339421 4.007305-5.87738 4.007305z" fill="#684C4B" p-id="6669"></path><path d="M506.656927 313.104096c-5.877381 0-10.55257-4.675189-10.55257-10.55257 0-1.335768 0.267154-2.671537 0.667884-3.873728 3.472998-8.682494 6.010957-24.04383 1.068615-30.856248-2.404383-3.205844-7.079572-4.541612-14.292721-4.007305-2.805113 0.267154-5.47665-0.667884-7.61388-2.404383-2.137229-1.870076-3.472998-4.541612-3.740151-7.346726-0.40073-5.877381 4.007305-10.819723 9.751109-11.354031 14.960605-1.068615 25.913906 3.072267 32.8599 12.556222 13.758414 18.56718 2.93869 47.820506 1.602922 51.159927-1.469345 4.007305-5.343073 6.678842-9.751108 6.678842z m-22.307331-58.773806c10.151839 0 16.830681 2.671537 20.837986 8.01461 8.01461 10.9533 3.606574 30.722672 0.133576 39.538742l1.335769 2.003653c0.534307 0 1.068615-0.40073 1.335768-0.935038 3.740151-9.483955 8.281764-30.455518-0.40073-42.343856-4.942343-6.812418-13.357683-9.751109-24.845291-8.949648l-1.335769 1.602922c0 0.40073 0.267154 0.801461 0.534308 1.068615h2.404383z" fill="#684C4B" p-id="6670"></path><path d="M192.75137 154.014088c-21.773024-8.816071-57.037308 83.886251-57.037308 136.782677h-4.541612c-13.49126-67.589877-4.007305-156.151318 10.55257-187.541873 5.743804-139.721367 304.688756-40.874511 379.892512-87.626403 3.606574 28.184712-6.678842 79.878946-26.98252 97.243935 7.079572 34.99713 8.148187 95.774589-7.480303 177.924341h-4.408035c-3.072267-53.430733-28.986173-145.598748-50.759197-136.782677-58.907383 23.910253-180.195147 23.910253-239.236107 0z" fill="#ED758D" p-id="6671"></path><path d="M532.170102 14.426298c-0.133577-1.469345-0.667884-2.93869-1.469345-4.274459-3.072267-4.942343-9.617532-6.545265-14.559875-3.472997-25.379598 15.762066-83.886251 12.956953-145.865902 9.884685C285.854422 12.422645 198.495173 8.01461 155.884164 46.885468c-14.960605 13.624837-23.242369 31.791286-24.578137 53.965041-12.289069 28.451865-19.769371 88.695017-16.296374 145.198017-4.408035 2.137229-8.281764 5.209496-11.220454 9.216801-13.758414 18.56718-2.93869 47.820506-1.602922 51.159927 1.602922 4.007305 5.47665 6.678842 9.884686 6.678842 1.335768 0 2.53796-0.267154 3.873728-0.667884 5.47665-2.137229 8.148187-8.281764 6.010957-13.758414-2.270806-5.743804-4.140882-14.426298-3.740151-21.639447 0.801461 5.343073 1.602922 10.686147 2.671537 15.762066 0.935038 4.942343 5.343073 8.548917 10.418993 8.548918h4.541612c5.877381 0 10.55257-4.675189 10.55257-10.55257 0-47.419776 27.783981-116.211845 42.611009-126.230107 0.267154-0.133577 0.40073-0.267154 0.667885-0.400731 61.178189 24.310984 183.801722 24.310984 245.247064 0.133577 14.159144 9.617532 34.5964 79.211062 37.401514 127.165145 0.40073 5.610227 4.942343 10.018262 10.552569 10.018263h4.408036c5.07592 0 9.350378-3.606574 10.285416-8.548918 13.09053-68.391338 16.162797-132.508218 8.548917-176.321419 20.971563-23.509523 29.52048-75.604487 26.047483-102.186277z m-44.347509 90.431516c-2.93869 2.53796-4.274459 6.411688-3.472997 10.151839 2.93869 14.960605 8.41534 54.232194 0.801461 120.085573-8.01461-36.466475-22.040177-78.00887-39.138012-88.962171-3.205844-2.137229-7.079572-3.339421-10.953301-3.339421v-0.133577c-2.404383 0-4.675189 0.534307-6.945995 1.469346-56.235847 22.708062-175.119228 22.708062-231.355074 0-3.472998-1.469345-10.819723-2.93869-19.502218 2.805113-16.296374 10.9533-32.05844 45.416123-41.809549 80.680407-1.068615-49.957735 6.411688-99.11401 16.02922-119.951996 0.534307-1.202191 0.935038-2.671537 0.935038-4.007305 0.667884-17.498565 6.545265-30.989825 17.765719-41.275241 35.932168-32.859901 122.623532-28.585442 199.163058-24.845291 55.968693 2.805113 108.998696 5.343073 142.52648-5.877381-0.935038 26.98252-10.686147 61.846074-24.04383 73.200105z" fill="#684C4B" p-id="6672"></path><path d="M383.632664 555.813201c-0.801461-0.935038-1.469345-2.003652-2.003653-3.205844-1.602922-4.541612 4.140882-7.346726 7.079572-10.9533 6.278111-7.747456 7.079572-9.083225 10.55257-17.498565 2.137229-5.877381 0.133577-12.556222-4.942343-16.296374-5.743804-3.873728-13.357683-2.270806-19.769371 0-18.96791 6.812418-36.466475 17.097835-51.694234 30.321941h-29.253327c-9.751109-6.678842-19.635794-13.224106-30.188364-18.166449-10.9533-5.07592-22.975215-8.548917-34.99713-8.01461-2.137229 0-4.140882 0.40073-6.144534 1.202191-4.408035 2.003652-6.678842 6.945995-6.545265 11.754762s2.003652 9.483955 4.274459 13.89199c3.472998 6.812418 7.079572 9.483955 11.754761 15.62849 0.801461 0.935038 1.469345 2.003652 2.003652 3.205844 1.602922 4.541612-4.140882 7.346726-7.213149 10.9533-6.278111 7.747456-7.079572 9.083225-10.552569 17.498565-2.270806 6.010957-0.267154 12.689799 4.942342 16.429951 5.743804 4.007305 13.357683 2.270806 19.769372 0 18.56718-6.678842 35.798591-16.697104 50.759196-29.654057h4.808766c0.133577 0.267154 0.40073 0.534307 0.534307 0.667884 3.205844 2.93869 8.01461 2.53796 12.155492 2.003652 2.805113-0.40073 5.877381-0.935038 8.01461-2.671536h5.743804c9.350378 6.411688 18.834333 12.689799 29.11975 17.498565 10.9533 5.07592 22.975215 8.548917 34.99713 8.01461 2.137229 0 4.140882-0.40073 6.144534-1.202192 4.408035-2.003652 6.678842-6.945995 6.678842-11.754761s-2.137229-9.617532-4.274459-14.025567c-3.472998-6.945995-6.945995-9.617532-11.754761-15.62849z" fill="#F0D0D3" p-id="6673"></path><path d="M229.217845 609.243934c-10.018262 0.267154-18.433603-7.613879-18.700757-17.632142-0.133577-2.53796 0.40073-5.07592 1.335769-7.346725 3.606574-8.682494 4.541612-10.418993 11.220454-18.56718 1.068615-1.202191 2.270806-2.404383 3.472997-3.606575 1.068615-0.935038 2.137229-1.870076 2.938691-3.072267-0.40073-0.667884-0.801461-1.202191-1.202192-1.736499-1.602922-2.003652-2.93869-3.606574-4.274458-5.075919-3.205844-3.339421-5.877381-7.213149-8.01461-11.354031-2.270806-4.541612-4.675189-10.018262-4.808766-15.895643 0-7.213149 3.606574-13.49126 9.350378-16.02922 2.404383-0.935038 5.07592-1.469345 7.747456-1.469345 11.487608-0.534307 24.04383 2.270806 37.13436 8.41534 10.285416 4.808766 19.635794 10.9533 29.654057 17.765719h26.181059c15.227759-13.09053 32.859901-23.242369 51.827811-30.054787 6.545265-2.270806 16.162797-4.808766 23.776676 0.534307 6.812418 4.942343 9.617532 13.891991 6.545265 21.773024-3.606574 8.682494-4.541612 10.418993-11.220454 18.567179-1.068615 1.202191-2.270806 2.404383-3.472998 3.606575-1.068615 0.935038-2.137229 1.870076-2.93869 3.072267 0.267154 0.667884 0.667884 1.202191 1.202192 1.736499l-3.472998 2.93869 3.606574-2.805113c1.469345 1.870076 2.93869 3.472998 4.140882 4.942342 3.205844 3.339421 5.877381 7.213149 8.01461 11.354031 2.270806 4.541612 4.675189 10.018262 4.675189 15.895643 0.133577 7.213149-3.606574 13.49126-9.350378 16.02922-2.53796 1.068615-5.07592 1.469345-7.747456 1.602922-11.621184 0.534307-24.04383-2.270806-37.13436-8.41534-10.018262-4.942343-19.502218-10.55257-28.585442-17.097835h-2.805114c-2.671537 1.469345-5.743804 2.404383-8.949647 2.671537-3.606574 0.40073-10.285416 1.335768-15.361336-2.671537h-1.202192c-15.094182 12.823376-32.325594 22.708062-50.892773 29.386903-3.873728 1.602922-8.281764 2.404383-12.689799 2.53796z m1.602922-92.702322h-2.270806c-1.469345 0-3.072267 0.267154-4.408036 0.801461-2.671537 1.202191-4.007305 4.808766-3.873728 7.61388 0 4.007305 1.870076 8.01461 3.740152 11.888338 1.736499 3.472998 4.007305 6.678842 6.812418 9.483955 1.335768 1.602922 2.93869 3.339421 4.541612 5.343073 1.202191 1.335768 2.003652 2.93869 2.671537 4.541613 2.003652 6.010957-2.404383 10.151839-5.343073 12.823376-0.935038 0.801461-1.736499 1.602922-2.53796 2.537959-6.010957 7.480303-6.678842 8.41534-9.884686 16.296374-1.335768 4.007305 0 8.281764 3.339421 10.819723 3.205844 2.270806 8.281764 2.003652 15.628489-0.534307 18.032872-6.411688 34.863553-16.162797 49.289852-28.719019l1.335768-1.068615h8.682494l1.335769 1.602922c1.736499 1.736499 5.209496 1.469345 8.682494 1.068615 2.270806-0.267154 4.541612-0.667884 5.610227-1.602922l1.335768-1.068615h8.682494l1.202192 0.801461c9.350378 6.411688 18.56718 12.422645 28.451865 17.097835 11.754761 5.47665 22.841638 8.01461 32.859901 7.613879 1.469345 0 3.072267-0.267154 4.541612-0.801461 2.671537-1.202191 4.007305-4.808766 3.873728-7.613879 0-4.007305-1.870076-8.281764-3.740151-11.888338-1.736499-3.472998-4.140882-6.678842-6.812418-9.483955-1.335768-1.602922-2.93869-3.339421-4.541613-5.343074l3.606575-2.805113-3.740152 2.671537c-1.068615-1.335768-2.003652-2.805113-2.537959-4.408036-2.003652-6.010957 2.404383-10.151839 5.343073-12.823376 0.935038-0.801461 1.736499-1.602922 2.53796-2.53796 6.010957-7.480303 6.678842-8.41534 9.884685-16.296373 1.335768-4.007305 0-8.281764-3.33942-10.819724-3.339421-2.270806-8.281764-2.003652-15.62849 0.534308-18.433603 6.545265-35.531438 16.563527-50.224889 29.52048l-1.335768 1.068614h-32.325594l-1.202191-0.801461c-10.285416-6.945995-19.502218-13.09053-29.52048-17.899295-10.819723-5.07592-21.238716-7.747456-30.722672-7.61388z" fill="#684C4B" p-id="6674"></path><path d="M294.002609 579.456301c3.072267 2.003652 6.678842 3.072267 10.418993 2.93869 1.870076 0 3.740151-0.133577 5.610227-0.400731 3.472998-0.267154 6.945995-1.335768 10.018262-3.205844 8.816071 6.010957 18.56718 12.422645 29.253327 17.364989 12.289069 5.743804 24.177407 8.682494 35.39786 8.682494h2.671537c2.93869 0 5.743804-0.667884 8.548917-1.736499 6.545265-2.93869 10.686147-9.884686 10.55257-17.899296 0-6.278111-2.53796-12.021915-4.942343-16.830681-2.270806-4.274459-5.07592-8.281764-8.41534-11.754761-1.335768-1.469345-2.671537-2.93869-4.140882-5.07592l-0.267154-0.40073 1.736499-1.736499c1.335768-1.202191 2.53796-2.404383 3.740151-3.740151 6.678842-8.281764 7.881033-10.285416 11.487608-19.101487 3.339421-8.816071 0.267154-18.700757-7.346726-24.177407-8.41534-5.877381-18.700757-3.205844-25.646752-0.801461-19.368641 6.945995-37.267936 17.364988-52.896425 30.722672l-21.10514-0.667885c-0.801461 0-1.602922 0.133577-2.404383 0.267154-8.949648-6.144534-18.96791-12.823376-29.787634-17.899296-13.357683-6.278111-26.047482-9.083225-38.069397-8.548917-2.93869 0-5.743804 0.534307-8.548917 1.736499-6.545265 2.805113-10.55257 9.884686-10.55257 17.899296 0 6.278111 2.53796 12.021915 4.942343 16.830681 2.270806 4.274459 5.07592 8.281764 8.281763 11.754761 1.335768 1.469345 2.671537 2.93869 4.140882 4.942343l0.400731 0.40073-1.736499 1.736499c-1.335768 1.202191-2.53796 2.404383-3.740151 3.740151-6.678842 8.281764-7.881033 10.285416-11.487608 19.101487-4.140882 10.285416 0.801461 22.040177 11.086877 26.314636 2.53796 1.068615 5.343073 1.602922 8.148187 1.469346 4.675189-0.133577 9.350378-1.068615 13.624837-2.805114 18.56718-6.678842 35.798591-16.563527 51.02635-29.119749z m82.817636-65.452649c6.678842-2.404383 11.086877-2.671537 13.758414-0.801461 2.53796 2.003652 3.606574 5.343073 2.53796 8.415341-3.205844 7.747456-3.606574 8.41534-9.483955 15.895643-0.667884 0.801461-1.469345 1.602922-2.270806 2.270806-2.93869 2.671537-8.41534 7.613879-6.010958 14.960605 0.667884 1.870076 1.736499 3.606574 3.072267 5.07592 1.602922 2.137229 3.205844 3.873728 4.675189 5.47665 2.671537 2.671537 4.808766 5.743804 6.545265 9.083225s3.472998 7.346726 3.472998 10.9533c0 2.671537-1.068615 5.07592-2.671537 5.743804-1.202191 0.40073-2.404383 0.667884-3.740151 0.534307-9.751109 0.40073-20.570832-2.003652-31.924863-7.346725-10.018262-4.675189-19.635794-11.086877-28.184712-16.964258 0.267154-2.003652 0.267154-3.873728 0.133577-5.877381l-0.534307-17.364988c14.827028-13.09053 32.05844-23.375946 50.625619-30.054788z m-76.405948 47.820507l0.801461-16.964258 11.888338 0.40073 0.400731 16.563528c0.133577 3.472998-0.133577 5.47665-0.667885 6.010957s-3.339421 0.935038-4.541612 1.068615c-1.335768 0.133577-2.53796 0.267154-3.873728 0.267153-1.068615 0.133577-2.137229-0.133577-3.072267-0.667884-1.202191-1.068615-1.068615-5.209496-0.935038-6.678841z m-75.738064 35.130707c-2.53796-2.003652-3.606574-5.343073-2.53796-8.415341 3.205844-7.747456 3.606574-8.41534 9.483955-15.895643 0.667884-0.801461 1.469345-1.602922 2.270806-2.270806 2.93869-2.671537 8.41534-7.613879 5.877381-14.960605-0.667884-1.870076-1.736499-3.606574-3.072267-5.07592-1.602922-2.137229-3.205844-3.873728-4.675189-5.47665-2.53796-2.671537-4.808766-5.743804-6.411688-8.949648-1.736499-3.472998-3.472998-7.346726-3.472998-10.9533 0-2.671537 1.068615-5.07592 2.671537-5.743804 1.202191-0.40073 2.53796-0.667884 3.740151-0.667884 9.751109-0.40073 20.570832 2.003652 31.924863 7.346726 9.751109 4.541612 19.101487 10.686147 27.516827 16.42995l-0.935037 18.700757c-0.133577 2.137229-0.133577 4.274459 0.133576 6.411688-14.426298 12.422645-30.989825 22.173754-48.88912 28.585442-6.411688 2.53796-10.9533 2.671537-13.624837 0.935038z" fill="#684C4B" p-id="6675"></path><path d="M229.217845 615.922776c-5.209496 0.133577-10.285416-1.469345-14.559875-4.274459-9.350378-6.678842-12.956953-18.96791-8.949648-29.654057 3.740151-9.350378 5.209496-11.621184 12.155492-20.303678 0.935038-1.068615 1.870076-2.137229 2.805114-3.072267-0.534307-0.667884-1.068615-1.202191-1.602922-1.870076-3.606574-3.873728-6.678842-8.148187-9.216802-12.956953-2.671537-5.209496-5.343073-11.621184-5.47665-18.834333-0.133577-9.751109 5.07592-18.433603 13.224107-22.040178 3.205844-1.335768 6.678842-2.003652 10.285416-2.003652 12.689799-0.534307 26.181059 2.53796 40.206626 9.083225 10.151839 4.942343 19.769371 10.686147 28.986173 17.231411h1.335768l19.502218 0.667884c15.628489-13.224106 33.527785-23.509523 52.896426-30.455518 7.881033-2.805113 19.635794-5.743804 29.787633 1.335769 9.350378 6.678842 12.956953 18.834333 8.949648 29.654056-3.740151 9.350378-5.209496 11.621184-12.155492 20.303679-0.935038 1.068615-1.870076 2.137229-2.805113 3.072267 0.667884 0.667884 1.202191 1.335768 1.736499 2.003653 3.606574 3.740151 6.545265 8.148187 8.949648 12.689799 2.671537 5.209496 5.343073 11.621184 5.343073 18.834333 0.133577 9.751109-5.07592 18.433603-13.224107 22.040178-3.205844 1.335768-6.678842 2.003652-10.151839 2.137229-12.289069 0.667884-26.181059-2.53796-40.206626-9.083225-9.617532-4.675189-18.834333-10.151839-27.516828-16.162796-2.93869 1.202191-6.010957 2.137229-9.216801 2.404383-5.47665 0.667884-11.487608 0.534307-16.162797-1.602922-14.960605 12.021915-31.924863 21.50587-49.957736 27.917558-4.675189 1.736499-9.751109 2.805113-14.960605 2.93869z m1.469345-106.060005h-2.404383c-2.404383 0-4.675189 0.534307-6.812418 1.335768-4.808766 2.137229-7.881033 7.480303-7.881033 13.624837 0 5.343073 2.270806 10.418993 4.408035 14.827028 2.003652 3.873728 4.675189 7.613879 7.747456 10.819724 1.469345 1.602922 2.805113 3.205844 4.408036 5.209496l2.404383 3.072267-2.404383 3.339421c-0.534307 0.667884-1.335768 1.335768-2.003653 1.870076-1.202191 1.068615-2.270806 2.137229-3.205844 3.205844-6.411688 8.01461-7.346726 9.483955-10.819723 18.032872-2.53796 6.812418-0.133577 14.426298 5.610227 18.700757 6.010957 4.140882 16.02922 2.137229 21.50587 0.133577 18.032872-6.411688 34.863553-16.02922 49.690582-28.318289l2.671536-2.270806 2.805114 2.003653c3.205844 2.270806 8.148187 2.404383 12.823376 1.736498 2.805113-0.267154 5.610227-1.068615 8.01461-2.537959l2.53796-1.602922 2.537959 1.736498c8.816071 6.010957 18.433603 12.289069 28.585443 17.097835 12.689799 5.877381 24.845291 8.682494 35.932168 8.148187 2.404383 0 4.675189-0.534307 6.945995-1.335769 4.808766-2.137229 7.881033-7.480303 7.747456-13.624836 0-5.343073-2.270806-10.418993-4.408035-14.827029-2.003652-4.007305-4.675189-7.613879-7.747456-10.819723-1.335768-1.469345-2.671537-3.072267-4.408036-5.209497l-2.404383-3.072267 2.404383-3.339421c0.534307-0.667884 1.335768-1.335768 2.003653-1.870075 1.202191-0.935038 2.270806-2.003652 3.205844-3.205844 6.411688-8.01461 7.346726-9.483955 10.819723-18.032873 2.404383-6.812418 0.133577-14.426298-5.610227-18.700756-6.812418-4.675189-15.494913-2.404383-21.50587-0.133577-18.834333 6.678842-36.199322 16.830681-51.427081 29.787633l-1.335768 1.202192-22.841638-0.667884c-0.534307 0-0.935038 0-1.469346 0.133577l-1.870075 0.267153-1.602922-1.068614c-9.083225-6.144534-18.834333-12.556222-29.253327-17.498566-11.487608-5.343073-22.708062-8.148187-33.394208-8.148186z m-1.469345 92.835898c-2.53796 0.133577-4.942343-0.667884-7.079572-2.003652-4.274459-3.205844-6.010957-8.816071-4.274459-13.891991 3.339421-8.148187 4.007305-9.350378 10.285416-16.964257 0.801461-0.935038 1.602922-1.736499 2.53796-2.53796 3.740151-3.339421 6.411688-6.278111 5.07592-10.418993-0.534307-1.335768-1.335768-2.671537-2.270806-3.740152-1.602922-2.003652-3.072267-3.740151-4.408036-5.343073-2.805113-2.93869-5.209496-6.278111-7.079572-10.018262-2.003652-3.873728-4.007305-8.41534-4.007305-12.956953s2.137229-8.548917 5.47665-9.884686c1.736499-0.667884 3.472998-0.935038 5.343074-0.935038 10.686147-0.40073 21.906601 2.137229 34.062092 7.747457 10.018262 4.675189 19.368641 10.9533 28.184712 16.830681l2.137229 1.469345-1.068615 21.238716c-0.133577 1.870076-0.133577 3.740151 0.133577 5.610227l0.267154 2.404383-1.870076 1.602922c-14.827028 12.823376-31.924863 22.708062-50.358466 29.386903-3.740151 1.469345-7.480303 2.270806-11.086877 2.404383z m-2.003652-9.483955c0.40073 0.267154 2.404383 1.202191 9.617531-1.335768 16.697104-6.010957 32.192017-14.827028 45.683277-26.314636-0.133577-1.602922-0.133577-3.072267 0-4.675189l0.801461-16.162797c-7.881033-5.47665-16.162797-10.418993-24.711714-14.693452-10.819723-5.07592-20.704409-7.346726-29.787633-6.945995-0.667884 0-1.335768 0.133577-2.13723 0.267154 0.267154 0 0 0.667884 0 1.469345 0 2.671537 1.602922 6.278111 3.072267 8.949648 1.602922 2.93869 3.472998 5.610227 5.877381 8.01461 1.469345 1.736499 3.072267 3.472998 4.808766 5.743804 1.602922 1.870076 2.93869 4.140882 3.740151 6.411687 3.472998 10.151839-4.007305 16.964258-7.213149 19.769372-0.667884 0.534307-1.202191 1.068615-1.870075 1.736499-5.610227 6.945995-5.877381 7.346726-8.816071 14.693451-0.133577 1.202191 0.267154 2.270806 0.935038 3.072267z m157.086355 3.072267c-9.751109 0-20.303679-2.671537-31.524133-7.881033-10.151839-4.675189-19.769371-11.086877-28.852596-17.364988l-2.270806-1.602922 0.400731-2.805113c0.133577-1.736499 0.267154-3.472998 0.133577-5.07592l-0.534308-19.502218 1.602922-1.335768c15.227759-13.49126 32.859901-24.04383 52.094965-30.856248 5.209496-1.870076 12.556222-3.873728 17.899296-0.267154 4.274459 3.205844 6.010957 8.816071 4.274458 13.891991-3.339421 8.148187-4.007305 9.350378-10.285416 16.964257-0.801461 0.935038-1.602922 1.736499-2.404383 2.53796-3.606574 3.205844-6.411688 6.278111-4.942343 10.418993 0.534307 1.335768 1.335768 2.671537 2.270807 3.740151 1.602922 2.137229 3.072267 3.740151 4.408035 5.343074 2.805113 2.93869 5.209496 6.278111 7.213149 10.018262 2.003652 3.873728 4.007305 8.41534 4.007305 12.956953s-2.137229 8.548917-5.47665 10.018262c-1.736499 0.667884-3.606574 0.935038-5.343073 0.935038-1.068615-0.267154-1.870076-0.133577-2.671537-0.133577zM331.270545 565.030003c8.01461 5.743804 16.563527 10.686147 25.379598 15.094182 10.819723 5.07592 20.704409 7.346726 29.787634 6.945995 0.667884 0 1.469345-0.133577 2.13723-0.267154-0.267154 0 0-0.667884 0-1.469345 0-2.671537-1.602922-6.144534-3.072268-8.949648-1.469345-2.93869-3.472998-5.610227-5.743803-8.01461-1.602922-1.736499-3.072267-3.606574-4.808766-5.743803-1.602922-1.870076-2.93869-4.140882-3.740152-6.545265-3.472998-10.151839 4.007305-16.964258 7.213149-19.769371 0.667884-0.534307 1.202191-1.068615 1.736499-1.736499 5.610227-6.945995 5.877381-7.346726 8.949648-14.693452 0.133577-1.068615-0.133577-2.137229-0.935038-2.93869-0.267154-0.267154-2.404383-1.202191-9.617532 1.335768-17.364988 6.278111-33.527785 15.628489-47.553352 27.783981l0.40073 15.227759c-0.133577 1.068615-0.133577 2.404383-0.133577 3.740152z m-26.848943 8.682494c-2.137229 0.133577-4.408035-0.40073-6.144534-1.870076-2.270806-2.137229-2.671537-5.47665-2.404383-10.285416l1.068614-21.372293 20.570832 0.667884 0.534308 20.837986c0.133577 5.343073-0.40073 7.747456-2.13723 9.350378-1.469345 1.335768-3.472998 1.870076-7.079572 2.404383-1.469345 0.133577-2.93869 0.267154-4.408035 0.267154z m0.534307-11.754762v2.53796c0.935038 0 1.870076-0.133577 2.805114-0.267153l1.335768-0.133577v-2.270806l-0.267154-12.289069-3.072267-0.133577-0.801461 12.556222zM307.493869 624.070963c-14.159144 0-25.780329 11.487608-25.780329 25.780328 0 14.159144 11.487608 25.780329 25.780329 25.780329 14.159144 0 25.780329-11.487608 25.780329-25.780329-0.133577-14.292721-11.621184-25.780329-25.780329-25.780328z m-5.07592 25.780328c0-2.805113 2.270806-5.07592 5.07592-5.075919s5.07592 2.270806 5.07592 5.075919c0 2.805113-2.270806 5.07592-5.07592 5.07592-2.805113 0-5.07592-2.270806-5.07592-5.07592zM307.493869 678.036003c-14.159144 0-25.780329 11.487608-25.780329 25.780329 0 14.159144 11.487608 25.780329 25.780329 25.780329 14.159144 0 25.780329-11.487608 25.780329-25.780329-0.133577-14.292721-11.621184-25.780329-25.780329-25.780329z m-5.07592 25.646752c0-2.805113 2.270806-5.07592 5.07592-5.07592s5.07592 2.270806 5.07592 5.07592-2.270806 5.07592-5.07592 5.07592c-2.805113 0-5.07592-2.270806-5.07592-5.07592zM307.493869 731.867467c-14.159144 0-25.780329 11.487608-25.780329 25.780328 0 14.159144 11.487608 25.780329 25.780329 25.780329 14.159144 0 25.780329-11.487608 25.780329-25.780329-0.133577-14.292721-11.621184-25.780329-25.780329-25.780328z m-5.07592 25.780328c0-2.805113 2.270806-5.07592 5.07592-5.075919s5.07592 2.270806 5.07592 5.075919-2.270806 5.07592-5.07592 5.07592c-2.805113 0-5.07592-2.270806-5.07592-5.07592z" fill="#684C4B" p-id="6676"></path></svg>